# xmcd
#
# Track frame offsets:
#	150
#	28220
#	54128
#	92613
#	120391
#	150818
#	180840
#
# Disc length: 2877 seconds
#
# Revision: 0
# Processed by: cddbd v1.5.2PL0 Copyright (c) Steve Scherf et al.
# Submitted via: audiograbber 1.83.01
#
DISCID=3d0b3b07
DTITLE=The Matt Woosey Band - Live in Gallaghers Nest Disk 1
DYEAR=1900
DGENRE=Blues
TTITLE0=Cruel Disposion
TTITLE1=Find a Way
TTITLE2=Let it Flow
TTITLE3=Ons love
TTITLE4=Live is But A Song
TTITLE5=Same Old Blues
TTITLE6=Don´t Tell Nobody
EXTD=
EXTT0=
EXTT1=
EXTT2=
EXTT3=
EXTT4=
EXTT5=
EXTT6=
PLAYORDER=
